<svg id="Layer_1" enable-background="new 0 0 512 512" height="512" viewBox="0 0 512 512" width="512" xmlns="http://www.w3.org/2000/svg"><g><path d="m317.343 160.667c-15.769 0-31.463 2.572-46.343 7.525v-24.658c0-9.447 7.687-17.133 17.134-17.133h48.199c61.427 0 111.4-49.974 111.4-111.4 0-8.284-6.716-15-15-15h-80.333c-50.466 0-93.193 33.734-106.838 79.833-.557-.587-1.1-1.184-1.675-1.758l-25.481-25.482c-5.857-5.857-15.355-5.857-21.213 0-5.858 5.858-5.858 15.355 0 21.213l25.481 25.481c11.818 11.817 18.326 27.53 18.326 44.245v24.658c-14.88-4.953-30.574-7.525-46.343-7.525-80.757.001-146.457 65.701-146.457 146.458 0 37.534 17.754 87.522 46.332 130.456 31.483 47.295 67.977 74.42 100.125 74.42 16.338 0 33.521-6.737 51.038-20 6.067-4.568 14.544-4.571 20.574-.034 17.546 13.293 34.73 20.034 51.074 20.034 32.148 0 68.643-27.125 100.125-74.42 28.578-42.934 46.332-92.921 46.332-130.456 0-80.757-65.7-146.457-146.457-146.457zm35.057-130.667h63.947c-7.059 37.744-40.253 66.4-80.015 66.4h-48.199c-5.701 0-11.171 1.018-16.233 2.881 5.871-39.157 39.734-69.281 80.5-69.281zm40.094 390.957c-25.063 37.652-53.86 61.043-75.151 61.043-9.519 0-20.914-4.822-32.997-13.977-16.708-12.571-40.022-12.545-56.729.035-12.046 9.121-23.443 13.942-32.96 13.942-21.291 0-50.088-23.391-75.151-61.043-25.092-37.697-41.306-82.378-41.306-113.833 0-64.215 52.242-116.458 116.457-116.458 18.931 0 37.716 4.647 54.325 13.44 4.389 2.324 9.646 2.324 14.035 0 16.609-8.792 35.395-13.44 54.325-13.44 64.215 0 116.457 52.243 116.457 116.458.001 31.455-16.213 76.136-41.305 113.833z"/><path d="m191.717 224.933c-44.542 0-79.25 36.304-79.25 79.267 0 8.284 6.716 14.992 15 14.992s15-6.724 15-15.008c0-26.799 21.678-49.25 49.25-49.25h.017c8.284 0 14.992-6.716 14.992-15s-6.725-15.001-15.009-15.001z"/></g></svg>