<?xml version="1.0" encoding="iso-8859-1"?>
<!-- Generator: Adobe Illustrator 19.0.0, SVG Export Plug-In . SVG Version: 6.00 Build 0)  -->
<svg xmlns="http://www.w3.org/2000/svg" xmlns:xlink="http://www.w3.org/1999/xlink" version="1.1" id="Layer_1" x="0px" y="0px" viewBox="0 0 512.058 512.058" style="enable-background:new 0 0 512.058 512.058;" xml:space="preserve" width="512" height="512">
<g>
	<path d="M8.979,242H30.03v41.307c0,79.362,56.067,148.921,133.362,168.245l3.638,0.909l0.739-0.185   c3.741,10.233,8.491,20.233,14.267,29.86l1.93,3.216l3.215,1.929c68.077,40.846,155.245,30.529,211.854-26.08l29.208-29.208   l14.887,14.886l9.713-4.955c67.052-34.204,78.033-119.431,28.434-169.031l-31.82-31.82c35.111-35.11,35.247-93.033-0.001-128.279   l-21.212,21.214c23.269,23.268,23.269,62.584,0,85.852l-31.82-31.819c-19.257-19.257-45.274-30.137-72.132-30.717   C308.269,117.745,269.81,91,227.03,91h-46c0-33.635,26.916-61,60-61V0c-49.519,0-90,41.033-90,91h-46   C35.732,91-17.871,159.237,5.614,231.629L8.979,242z M159.257,419.082c-58.142-19.757-99.227-75.08-99.227-135.775V242h176.369   l-28.283,28.283C168.105,310.295,151.098,365.793,159.257,419.082z M377.822,439.989c-45.734,45.735-115.933,55.142-171.955,23.463   c-31.68-56.025-22.271-126.221,23.462-171.955l29.209-29.209L407.03,410.78L377.822,439.989z M310.389,188.214   c23.67-3.743,47.904,4.123,64.822,21.041l84.853,84.853c32.616,32.615,29.083,87.883-11.64,115.639L259.571,220.895   C271.626,203.209,289.675,191.49,310.389,188.214z M105.03,121h122c27.847,0,53.154,15.983,66.092,40.365   c-26.628,7.63-49.106,25.522-63.322,50.635H31.49C22.217,163.089,59.335,121,105.03,121z"/>
</g>















</svg>
