<svg id="Capa_1" enable-background="new 0 0 512.001 512.001" height="512" viewBox="0 0 512.001 512.001" width="512" xmlns="http://www.w3.org/2000/svg"><g><path d="m509.417 243.585-61-90c-.033-.049-.072-.094-.105-.143-.128-.184-.263-.361-.398-.538-.139-.182-.281-.362-.427-.537-.144-.171-.289-.338-.439-.502-.161-.175-.328-.344-.496-.511-.147-.146-.292-.292-.444-.431-.212-.194-.434-.375-.656-.557-.121-.098-.236-.202-.36-.296-.349-.266-.71-.517-1.082-.751-.103-.065-.211-.121-.316-.184-.28-.167-.563-.331-.855-.48-.147-.075-.298-.143-.448-.213-.255-.12-.512-.236-.774-.342-.171-.069-.344-.134-.519-.197-.119-.043-.234-.095-.354-.135l-121.69-40.563c16.615-15.598 26.946-30.879 26.946-50.629 0-29.481-23.06-52.576-52.5-52.576-14.565 0-27.422 5.634-37.5 16.362-10.078-10.728-22.934-16.362-37.5-16.362-29.439 0-52.5 23.095-52.5 52.576 0 19.75 10.331 35.031 26.947 50.63l-121.69 40.564c-.129.043-.252.098-.38.145-.159.058-.317.116-.474.18-.28.113-.554.236-.825.364-.135.064-.271.125-.403.192-.313.16-.618.334-.918.515-.085.051-.173.097-.258.15-.376.237-.742.491-1.096.761-.11.084-.213.178-.322.265-.235.19-.469.383-.693.587-.147.134-.287.276-.429.417-.173.171-.345.345-.51.525-.147.161-.29.325-.43.492-.15.178-.294.361-.436.546-.133.175-.266.35-.393.531-.034.049-.073.095-.107.145l-61 90c-2.637 3.89-3.298 8.791-1.786 13.241 1.513 4.45 5.022 7.934 9.483 9.413l50.72 16.813v149.948c0 6.456 4.132 12.188 10.257 14.23l180 60c1.539.513 3.142.77 4.743.77 1.602 0 3.204-.257 4.743-.77l180-60c6.126-2.041 10.257-7.774 10.257-14.23v-149.948l50.72-16.813c4.461-1.479 7.971-4.963 9.482-9.413 1.513-4.45.852-9.351-1.785-13.241zm-290.917-209.585c16.315 0 22.402 17.063 23.146 19.359 1.836 6.441 7.651 10.886 14.354 10.886 6.702 0 12.518-4.445 14.354-10.886.744-2.295 6.831-19.359 23.146-19.359 14.771 0 22.5 11.357 22.5 22.576 0 15.785-17.062 29.813-49.757 55.286-3.341 2.603-6.743 5.253-10.243 8.003-3.5-2.75-6.902-5.4-10.243-8.003-32.695-25.474-49.757-39.501-49.757-55.286 0-11.219 7.729-22.576 22.5-22.576zm-140.124 223.206-39.833-13.205 43.498-64.177 150.586 50.195-42.763 64.143-106.859-35.421c-1.422-.753-2.982-1.272-4.629-1.535zm162.624 214.983-150-50v-129.193l100.28 33.242c6.41 2.125 13.453-.296 17.2-5.918l32.52-48.778zm15-266-132.565-44.189 96.565-32.188c2.39 1.873 19.868 15.492 26.63 20.901 2.739 2.191 6.055 3.287 9.37 3.287s6.631-1.096 9.37-3.287c6.763-5.41 24.241-19.028 26.63-20.901l96.566 32.188zm165 216-150 50v-199.355l32.624 47.642c2.853 4.166 7.527 6.526 12.378 6.526 1.573 0 3.164-.248 4.718-.763l100.28-33.243zm12.625-164.983c-1.647.263-3.207.782-4.629 1.534l-106.998 35.47-43.708-63.828 151.671-50.557 43.498 64.177z"/></g></svg>