<?xml version="1.0" encoding="iso-8859-1"?>
<!-- Generator: Adobe Illustrator 19.0.0, SVG Export Plug-In . SVG Version: 6.00 Build 0)  -->
<svg version="1.1" id="Capa_1" xmlns="http://www.w3.org/2000/svg" xmlns:xlink="http://www.w3.org/1999/xlink" x="0px" y="0px"
	 viewBox="0 0 512 512" style="enable-background:new 0 0 512 512;" xml:space="preserve">
<g>
	<g>
		<path d="M434.951,178.951c-24.668,0-44.738-20.069-44.738-44.738V14.913C390.214,6.677,383.537,0,375.301,0h-59.65
			c-8.236,0-14.913,6.677-14.913,14.913v98.528c0,24.84-19.801,45.308-44.139,45.624c-12.066,0.188-23.444-4.421-32.025-12.893
			c-8.584-8.472-13.311-19.78-13.311-31.84V14.913C211.262,6.677,204.585,0,196.35,0h-59.651c-8.236,0-14.913,6.677-14.913,14.913
			v119.301c0,24.668-20.069,44.738-44.738,44.738c-8.236,0-14.913,6.677-14.913,14.913v303.223c0,8.236,6.677,14.913,14.913,14.913
			h357.903c8.236,0,14.913-6.677,14.913-14.913V193.864C449.864,185.628,443.187,178.951,434.951,178.951z M420.039,482.175H91.961
			v-14.913h328.078V482.175z M420.039,437.437H91.961v-29.825h328.078V437.437z M420.039,377.786H91.961V207.279
			c33.991-6.929,59.65-37.057,59.65-73.065V29.825h29.825v84.505c0,20.1,7.879,38.946,22.183,53.067
			c14.068,13.886,32.63,21.496,52.367,21.496c0.332,0,0.665-0.002,0.997-0.006c40.572-0.526,73.579-34.372,73.579-75.447V29.825
			h29.825v104.388c0,36.008,25.66,66.135,59.65,73.065V377.786z"/>
	</g>
</g>
<g>
</g>
<g>
</g>
<g>
</g>
<g>
</g>
<g>
</g>
<g>
</g>
<g>
</g>
<g>
</g>
<g>
</g>
<g>
</g>
<g>
</g>
<g>
</g>
<g>
</g>
<g>
</g>
<g>
</g>
</svg>
