<svg xmlns="http://www.w3.org/2000/svg" width="408.562" height="450.523" viewBox="0 0 408.562 450.523"><g transform="translate(-51.717 -0.737)"><path d="M448,421.259c-11,0-15.775-3.581-23-9-5.32-3.99-11.419-8.561-19.938-11.6C382.588,360.763,330.6,333.275,271,329.289V162.423l137.927,64.563,6.358-13.585A83.729,83.729,0,0,0,374.995,102.2l-14.655-6.86L430.187,70.03l-5.11-14.1A83.732,83.732,0,0,0,317.954,5.783l-21.9,7.935a83.143,83.143,0,0,0-40.025,30.76,83,83,0,0,0-40.084-30.76l-21.9-7.935A83.634,83.634,0,0,0,86.924,55.927l-5.111,14.1L151.66,95.336l-14.655,6.86A83.732,83.732,0,0,0,96.714,213.4l6.359,13.585L241,162.424V329.27c-59.755,3.969-111.6,31.436-134.077,71.395C98.41,403.7,92.314,408.271,87,412.26c-7.226,5.419-12,9-23,9s-21,30,0,30,32.089-8.317,41-15c7.226-5.419,12-9,23-9s15.773,3.581,23,9c8.91,6.683,20,15,41,15s32.088-8.317,41-15c7.226-5.419,12-9,23-9s15.773,3.581,23,9c8.91,6.683,20,15,41,15s32.09-8.317,41-15c7.227-5.419,12-9,23-9s15.775,3.581,23,9c8.911,6.683,20,15,41,15S459,421.259,448,421.259ZM392.541,186.193l-114.4-53.551a53.712,53.712,0,0,1,63.041-13.149l21.1,9.875a53.729,53.729,0,0,1,30.264,56.825ZM306.273,41.924s34.063-11.146,40.117-11.146a53.883,53.883,0,0,1,43.364,21.993L271.043,95.781c.1-2.4.115-4.795.008-7.189a53.705,53.705,0,0,1,35.222-46.668ZM142.817,35.84a53.293,53.293,0,0,1,41.009-1.851l21.9,7.935a53.711,53.711,0,0,1,35.263,47.2c-.088,2.214-.1,4.437-.009,6.668L122.226,52.764A53.365,53.365,0,0,1,142.817,35.84ZM119.459,186.193a53.728,53.728,0,0,1,30.265-56.825l21.1-9.875a53.712,53.712,0,0,1,63.041,13.149ZM342.991,412.259c-7.227,5.419-12,9-23,9s-15.773-3.58-23-9c-8.91-6.683-20-15-41-15s-32.088,8.317-41,15c-7.226,5.419-12,9-23,9s-15.773-3.581-23-9c-6.113-4.585-13.253-9.939-23.915-12.849,23.673-24.677,65.586-40.643,110.919-40.643,28.8,0,56.175,6.123,79.158,17.708a116.485,116.485,0,0,1,31.733,22.94C356.239,402.326,349.1,407.677,342.991,412.259Z"/></g></svg>