<svg id="Capa_1" enable-background="new 0 0 512 512" height="512" viewBox="0 0 512 512" width="512" xmlns="http://www.w3.org/2000/svg"><g><path d="m271.465 256c0-24.813-20.212-45-45.057-45-24.844 0-45.056 20.187-45.056 45s20.212 45 45.056 45c24.845 0 45.057-20.187 45.057-45zm-45.057 15c-8.304 0-15.06-6.729-15.06-15s6.756-15 15.06-15c8.305 0 15.061 6.729 15.061 15s-6.756 15-15.061 15z"/><path d="m511.932 56c0-10.755-11.006-18.009-20.882-13.797l-111.348 47.496c-41.905-38.551-96.016-59.699-153.294-59.699-124.924 0-226.408 100.849-226.408 226 0 124.922 101.274 226 226.408 226 89.907 0 170.988-53.306 207.011-134.337 31.107 13.098 70.765-4.917 77.539-35.894 1.426-3.787.974 13.735.974-255.769zm-73.201 121.387 43.205-18.402v105.129c-8.845-3.075-18.923-3.971-29.211-2.189.758-29.131-3.935-57.526-13.994-84.538zm43.205-51.01-135.325 57.638v-47.587l135.325-57.724zm-255.528 325.623c-108.302 0-196.412-87.925-196.412-196s88.11-196 196.412-196c45.057 0 87.852 15.079 122.544 42.815l-23.224 9.906c-5.528 2.358-9.114 7.788-9.114 13.797v187.595c-38.651-13.436-83.176 18.231-74.251 54.896 5.865 24.094 33.756 38.108 62.201 31.21 19.584-4.748 36.816-18.978 41.073-38.454 1.399-3.716.973 5.796.973-145.143l64.484-27.465c10.177 27.946 13.802 57.811 10.579 87.934-15.088 14.159-18.597 33.312-11.659 48.664-28.884 75.711-102.055 126.245-183.606 126.245zm71.088-80.935c-13.22 3.201-24.307-2.251-25.988-9.151-1.762-7.241 6.115-16.906 18.863-19.998 13.228-3.205 24.308 2.253 25.988 9.151v.001c1.766 7.253-6.134 16.91-18.863 19.997zm165.321-50c-13.224 3.203-24.307-2.25-25.988-9.152-1.762-7.236 6.108-16.903 18.863-19.997 13.228-3.205 24.308 2.253 25.988 9.151v.001c1.767 7.255-6.137 16.911-18.863 19.997z"/></g></svg>