<svg height="512pt" viewBox="-30 0 512 512" width="512pt" xmlns="http://www.w3.org/2000/svg"><path d="m404.625 481.882812v-303.453124c0-20.375-3.4375-40.246094-10.023438-58.96875 32.164063-4.007813 57.144532-31.496094 57.144532-64.730469h-30.117188c0 19.375-15.761718 35.136719-35.136718 35.136719h-5.492188c-7.796875-13.515626-17.425781-26.109376-28.78125-37.460938-33.792969-33.796875-78.554688-52.40625-126.035156-52.40625-67.160156 0-125.585938 35.136719-156.023438 89.867188h-4.90625c-19.375 0-35.136718-15.761719-35.136718-35.136719h-30.117188c0 33.234375 24.980469 60.722656 57.144531 64.730469-2.328125 6.976562-4.253906 14.167968-5.734375 21.5625-1.390625 6.945312-2.390625 14.0625-2.980468 21.164062-.449219 5.332031-.675782 10.8125-.675782 16.242188 0 64.742187 14.875 122.65625 44.210938 172.121093 23.492187 39.609375 56.175781 73.765625 97.136718 101.519531 17.894532 12.121094 35.734376 21.921876 52.40625 29.8125h-151.160156v30.117188h362.402344v-30.117188zm-30.117188-14.558593c-44.585937-21.59375-73.34375-66.585938-73.34375-117.566407 0-50.960937 28.761719-95.960937 73.34375-117.5625zm-46.464843-396.421875c-6.558594-1.382813-13.328125-2.117188-20.234375-2.117188-34.324219 0-64.53125 17.839844-81.730469 44.675782-17.117187-26.835938-47.183594-44.675782-81.347656-44.675782-7.84375 0-15.511719.964844-22.882813 2.765625 26.769532-25.957031 63.613282-41.433593 104.335938-41.433593 38.105468 0 74.117187 14.453124 101.859375 40.785156zm-122.046875 356.234375c-85.015625-57.597657-128.125-141.273438-128.125-248.707031 0-4.589844.191406-9.253907.570312-13.75.480469-5.789063 1.292969-11.582032 2.40625-17.242188 7.859375-28.597656 34.058594-48.535156 63.882813-48.535156 36.53125 0 66.253906 29.644531 66.253906 66.085937v20.984375l-47.667969 23.640625 62.265625 92.816407 62.617188-92.761719-47.097657-23.496094v-21.183594c0-36.441406 29.925782-66.085937 66.707032-66.085937 26.910156 0 50.949218 15.808594 61.429687 40.324218 3.472657 12.628907 5.269531 25.785157 5.269531 39.203126v21.019531c-28.042968 10.761719-53.03125 29.515625-71.183593 53.632812-21.117188 28.046875-32.277344 61.480469-32.277344 96.679688 0 35.21875 11.171875 68.664062 32.308594 96.71875 10.316406 13.695312 22.832031 25.652343 36.855469 35.40625h-6.316407c-8.226562-1.601563-68.199219-14.308594-127.898437-54.75zm19.855468-214.917969 18.171876 9.066406-18.363282 27.203125-18.207031-27.144531zm0 0"/></svg>