<svg id="Capa_1" enable-background="new 0 0 512 512" height="512" viewBox="0 0 512 512" width="512" xmlns="http://www.w3.org/2000/svg"><g><path d="m436.366 174.253c1.401-31.277-10.267-61.909-32.754-84.432-43.857-43.925-114.853-43.928-158.714 0l-26.269 26.31-25.736-25.775c-44.125-44.192-115.677-44.243-159.853 0-44.052 44.12-44.052 115.91 0 160.03l173.833 174.101c5.857 5.866 15.374 5.868 21.233 0l40.527-40.589 66.722 66.825c5.856 5.866 15.374 5.868 21.233 0l130.297-130.498c50.676-50.756 20.031-137.703-50.519-145.972zm-218.877 218.406-163.217-163.468c-32.383-32.434-32.382-85.206.001-117.639 32.442-32.492 84.941-32.496 117.387 0l36.352 36.408c5.857 5.866 15.374 5.868 21.233 0l36.885-36.942c32.126-32.177 84.118-32.181 116.249 0 17.219 17.246 25.779 40.986 23.812 64.982-27.755 6.622-40.06 22.243-60.221 42.435l-19.673-19.703c-33.519-33.569-87.784-33.577-121.308 0-33.426 33.478-33.426 87.949 0 121.426l42.444 42.51zm248.161-93.629-119.68 119.865-119.748-119.933c-21.756-21.79-21.756-57.244 0-79.034 21.79-21.823 57.05-21.827 78.843 0l30.289 30.335c5.857 5.866 15.374 5.868 21.233 0l30.222-30.269c21.791-21.824 57.05-21.826 78.843 0 21.755 21.791 21.755 57.246-.002 79.036z"/></g></svg>